<?xml version="1.0" encoding="UTF-8" standalone="no"?>
<!-- Created with Inkscape (http://www.inkscape.org/) -->

<svg
   width="1024"
   height="1024"
   viewBox="0 0 1024 1024"
   version="1.1"
   id="svg5"
   inkscape:version="1.1.2 (0a00cf5339, 2022-02-04, custom)"
   sodipodi:docname="icon-sq.svg"
   inkscape:export-filename="/home/nabil/Documents/web/ruet-mse-20/src/assets/icon.png"
   inkscape:export-xdpi="96"
   inkscape:export-ydpi="96"
   xmlns:inkscape="http://www.inkscape.org/namespaces/inkscape"
   xmlns:sodipodi="http://sodipodi.sourceforge.net/DTD/sodipodi-0.dtd"
   xmlns="http://www.w3.org/2000/svg"
   xmlns:svg="http://www.w3.org/2000/svg">
  <sodipodi:namedview
     id="namedview7"
     pagecolor="#ffffff"
     bordercolor="#666666"
     borderopacity="1.0"
     inkscape:pageshadow="2"
     inkscape:pageopacity="0.0"
     inkscape:pagecheckerboard="0"
     inkscape:document-units="px"
     showgrid="true"
     units="px"
     inkscape:zoom="0.5"
     inkscape:cx="503"
     inkscape:cy="512"
     inkscape:window-width="1920"
     inkscape:window-height="1007"
     inkscape:window-x="0"
     inkscape:window-y="0"
     inkscape:window-maximized="1"
     inkscape:current-layer="layer1"
     inkscape:snap-intersection-paths="true"
     inkscape:snap-bbox="true"
     inkscape:bbox-paths="true"
     inkscape:bbox-nodes="true"
     inkscape:snap-bbox-edge-midpoints="true"
     inkscape:snap-bbox-midpoints="true"
     inkscape:snap-smooth-nodes="false"
     inkscape:object-paths="false"
     inkscape:snap-midpoints="false"
     inkscape:snap-object-midpoints="true"
     inkscape:snap-center="true"
     inkscape:snap-text-baseline="false"
     inkscape:snap-page="true"
     inkscape:snap-grids="true" />
  <defs
     id="defs2">
    <inkscape:path-effect
       effect="pts2ellipse"
       id="path-effect49980"
       is_visible="true"
       lpeversion="1"
       method="auto"
       gen_arc="false"
       arc_other="false"
       slice_arc="false"
       gen_isometric_frame="false"
       draw_axes="false"
       gen_perspective_frame="false"
       draw_perspective_axes="false"
       rot_axes="0"
       draw_ori_path="false" />
    <inkscape:path-effect
       effect="pts2ellipse"
       id="path-effect10462"
       is_visible="true"
       lpeversion="1"
       method="auto"
       gen_arc="false"
       arc_other="false"
       slice_arc="false"
       gen_isometric_frame="false"
       draw_axes="false"
       gen_perspective_frame="false"
       draw_perspective_axes="false"
       rot_axes="0"
       draw_ori_path="false" />
    <clipPath
       clipPathUnits="userSpaceOnUse"
       id="clipPath15844">
      <rect
         style="display:inline;fill:#ffff00;fill-opacity:1;stroke:none;stroke-width:1.49039;stroke-linecap:round;stroke-miterlimit:4;stroke-dasharray:none;stroke-dashoffset:4.5"
         id="rect15846"
         width="464"
         height="600"
         x="288"
         y="212"
         rx="30"
         ry="30" />
    </clipPath>
  </defs>
  <g
     inkscape:label="Layer 1"
     inkscape:groupmode="layer"
     id="layer1"
     style="display:inline;opacity:1">
    <rect
       style="fill:#37b39b;fill-opacity:1;stroke:none;stroke-width:8;stroke-linecap:round;stroke-dashoffset:4.5"
       id="rect1119"
       width="1024"
       height="1024"
       x="0"
       y="0"
       rx="128"
       ry="128" />
    <g
       id="g2188"
       transform="matrix(1.5,0,0,1.5,-256,-256)">
      <path
         id="rect30699"
         style="fill:#e75237;stroke-width:1.37358;stroke-linecap:round;stroke-dashoffset:4.5"
         d="m 752,256 h 28 v 92 h -28 z" />
      <path
         id="rect30701"
         style="fill:#faca0c;stroke-width:1.50467;stroke-linecap:round;stroke-dashoffset:4.5"
         d="m 752,362 h 28 v 92 h -28 z" />
      <path
         id="rect30703"
         style="fill:#32505e;stroke-width:1.37358;stroke-linecap:round;stroke-dashoffset:4.5"
         d="m 752,468 h 28 v 92 h -28 z" />
      <g
         id="g15842"
         clip-path="url(#clipPath15844)"
         style="display:inline">
        <rect
           style="display:inline;fill:#34505e;fill-opacity:1;stroke:none;stroke-width:1.5;stroke-linecap:round;stroke-miterlimit:4;stroke-dasharray:none;stroke-dashoffset:4.5"
           id="rect15740"
           width="80"
           height="608"
           x="288"
           y="208" />
        <rect
           style="display:inline;fill:#edf1f4;fill-opacity:1;stroke:none;stroke-width:1.46969;stroke-linecap:round;stroke-miterlimit:4;stroke-dasharray:none;stroke-dashoffset:4.5"
           id="rect15534"
           width="384"
           height="608"
           x="368"
           y="208" />
      </g>
      <g
         aria-label="RUET MSE-20 Family"
         id="text12622"
         style="font-size:48px;line-height:1.25;font-family:Raleway;-inkscape-font-specification:Raleway;display:inline">
        <path
           d="m 476.12018,634.07983 v -34.08 h 14.4 q 2.208,0 4.032,0.912 1.872,0.912 3.216,2.496 1.344,1.536 2.064,3.456 0.768,1.872 0.768,3.84 0,2.496 -0.96,4.656 -0.912,2.16 -2.64,3.648 -1.728,1.488 -3.984,1.92 l 8.352,13.152 h -3.792 l -8.016,-12.576 h -10.08 v 12.576 z m 3.36,-15.552 h 11.136 q 2.016,0 3.504,-1.104 1.488,-1.152 2.304,-2.928 0.816,-1.776 0.816,-3.792 0,-2.064 -0.96,-3.792 -0.912,-1.776 -2.496,-2.832 -1.584,-1.104 -3.456,-1.104 h -10.848 z"
           id="path2082" />
        <path
           d="m 521.33617,634.31983 q -4.032,0 -6.816,-1.44 -2.736,-1.44 -4.416,-3.888 -1.68,-2.448 -2.4,-5.472 -0.72,-3.072 -0.72,-6.336 v -17.184 h 3.312 v 17.184 q 0,2.688 0.528,5.232 0.576,2.496 1.824,4.512 1.248,2.016 3.36,3.216 2.112,1.152 5.28,1.152 3.264,0 5.376,-1.2 2.16,-1.2 3.408,-3.216 1.248,-2.064 1.728,-4.56 0.528,-2.544 0.528,-5.136 v -17.184 h 3.36 v 17.184 q 0,3.408 -0.768,6.528 -0.768,3.072 -2.496,5.472 -1.68,2.4 -4.416,3.792 -2.736,1.344 -6.672,1.344 z"
           id="path2084" />
        <path
           d="m 566.60013,631.10383 v 2.976 h -22.896 v -34.08 h 22.464 v 2.976 h -19.104 v 12.288 h 16.656 v 2.832 h -16.656 v 13.008 z"
           id="path2086" />
        <path
           d="m 597.12809,602.97583 h -12.144 v 31.104 h -3.36 v -31.104 h -12.144 v -2.976 h 27.648 z"
           id="path2088" />
        <path
           d="m 506.31218,694.07983 v -27.744 l -12.336,21.552 h -2.112 l -12.384,-21.552 v 27.744 h -3.36 v -34.08 h 3.456 l 13.296,23.328 13.392,-23.328 h 3.408 v 34.08 z"
           id="path2090" />
        <path
           d="m 538.13621,666.38383 q -1.44,-1.584 -3.84,-2.592 -2.4,-1.056 -5.472,-1.056 -4.512,0 -6.576,1.728 -2.064,1.68 -2.064,4.608 0,2.016 1.008,3.168 1.008,1.152 3.072,1.92 2.112,0.72 5.376,1.44 3.648,0.768 6.288,1.824 2.64,1.056 4.08,2.88 1.44,1.776 1.44,4.848 0,3.12 -1.584,5.184 -1.584,2.064 -4.368,3.072 -2.784,0.96 -6.336,0.96 -7.968,0 -13.68,-4.944 l 1.68,-2.736 q 1.824,1.92 4.992,3.312 3.216,1.392 7.104,1.392 4.032,0 6.336,-1.488 2.304,-1.488 2.304,-4.416 0,-2.112 -1.152,-3.36 -1.152,-1.296 -3.456,-2.112 -2.304,-0.816 -5.664,-1.584 -3.552,-0.816 -6,-1.824 -2.4,-1.008 -3.648,-2.64 -1.248,-1.632 -1.248,-4.416 0,-3.168 1.536,-5.328 1.584,-2.208 4.32,-3.312 2.736,-1.152 6.288,-1.152 3.36,0 6.048,1.056 2.688,1.008 4.848,2.88 z"
           id="path2092" />
        <path
           d="m 570.24823,691.10383 v 2.976 h -22.896 v -34.08 h 22.464 v 2.976 h -19.104 v 12.288 h 16.656 v 2.832 h -16.656 v 13.008 z"
           id="path2094" />
        <path
           d="m 575.19224,682.51183 v -3.024 h 14.016 v 3.024 z"
           id="path2096" />
        <path
           d="m 594.24829,694.07983 q 0,-2.16 0.528,-4.368 0.576,-2.256 2.256,-4.32 1.728,-2.112 5.184,-3.888 1.392,-0.72 2.88,-1.392 1.488,-0.72 2.784,-1.536 1.296,-0.864 2.112,-1.92 0.816,-1.104 0.816,-2.592 0,-1.2 -0.72,-2.304 -0.72,-1.152 -2.112,-1.872 -1.392,-0.768 -3.504,-0.768 -2.016,0 -3.6,0.72 -1.536,0.72 -2.592,1.68 -1.008,0.912 -1.536,1.488 l -2.064,-2.256 q 0.288,-0.288 1.104,-1.008 0.816,-0.768 2.112,-1.584 1.344,-0.816 3.12,-1.392 1.776,-0.576 3.984,-0.576 2.928,0 4.992,1.056 2.112,1.056 3.216,2.784 1.104,1.68 1.104,3.696 0,1.968 -0.864,3.408 -0.816,1.392 -2.16,2.448 -1.296,1.008 -2.736,1.776 -1.392,0.72 -2.544,1.248 -3.024,1.44 -4.752,2.88 -1.728,1.392 -2.544,2.784 -0.768,1.392 -1.056,2.832 h 17.184 v 2.976 z"
           id="path2098" />
        <path
           d="m 643.88029,680.01583 q 0,4.224 -1.584,7.536 -1.584,3.264 -4.32,5.136 -2.688,1.872 -6.144,1.872 -3.456,0 -6.192,-1.872 -2.736,-1.872 -4.32,-5.136 -1.536,-3.312 -1.536,-7.536 0,-4.224 1.536,-7.488 1.584,-3.312 4.32,-5.184 2.736,-1.92 6.192,-1.92 3.456,0 6.144,1.92 2.736,1.872 4.32,5.184 1.584,3.264 1.584,7.488 z m -3.312,0 q 0,-3.408 -1.104,-6 -1.104,-2.64 -3.072,-4.08 -1.968,-1.44 -4.56,-1.44 -2.592,0 -4.56,1.44 -1.968,1.44 -3.12,4.08 -1.104,2.592 -1.104,6 0,3.408 1.104,6 1.152,2.592 3.12,4.032 1.968,1.44 4.56,1.44 2.592,0 4.56,-1.44 1.968,-1.44 3.072,-4.032 1.104,-2.592 1.104,-6 z"
           id="path2100" />
        <path
           d="m 476.12018,754.07983 v -34.08 h 22.368 v 2.976 h -19.008 v 12.528 h 16.032 v 2.784 h -16.032 v 15.792 z"
           id="path2102" />
        <path
           d="m 498.58418,746.87983 q 0,-2.304 1.344,-3.984 1.344,-1.728 3.696,-2.688 2.4,-0.96 5.52,-0.96 1.824,0 3.792,0.336 1.968,0.288 3.504,0.816 v -2.112 q 0,-3.168 -1.872,-5.04 -1.872,-1.872 -5.184,-1.872 -1.968,0 -3.936,0.768 -1.968,0.72 -4.08,2.16 l -1.248,-2.304 q 2.448,-1.68 4.8,-2.496 2.352,-0.864 4.8,-0.864 4.608,0 7.296,2.64 2.688,2.64 2.688,7.296 v 11.568 q 0,1.296 1.2,1.344 v 2.592 q -1.056,0.144 -1.488,0.096 -1.2,-0.048 -1.824,-0.768 -0.624,-0.72 -0.672,-1.536 l -0.048,-1.824 q -1.68,2.16 -4.368,3.36 -2.688,1.152 -5.472,1.152 -2.448,0 -4.368,-1.008 -1.92,-1.056 -3.024,-2.784 -1.056,-1.776 -1.056,-3.888 z m 16.752,1.92 q 1.104,-1.296 1.104,-2.4 v -3.648 q -3.312,-1.296 -6.912,-1.296 -3.504,0 -5.664,1.392 -2.16,1.392 -2.16,3.792 0,2.064 1.584,3.744 1.632,1.68 4.512,1.68 2.352,0 4.368,-0.912 2.064,-0.912 3.168,-2.352 z"
           id="path2104" />
        <path
           d="m 563.96019,754.07983 h -3.264 v -13.968 q 0,-4.32 -1.392,-6.384 -1.392,-2.112 -4.128,-2.112 -2.88,0 -5.088,2.016 -2.208,2.016 -3.12,5.184 v 15.264 h -3.264 v -13.968 q 0,-4.416 -1.392,-6.432 -1.344,-2.064 -4.08,-2.064 -2.832,0 -5.088,1.968 -2.208,1.968 -3.12,5.184 v 15.312 h -3.264 v -25.008 h 2.976 v 5.664 q 1.536,-2.88 4.032,-4.464 2.496,-1.632 5.52,-1.632 3.12,0 5.04,1.824 1.92,1.776 2.352,4.608 3.456,-6.432 9.648,-6.432 4.224,0 5.904,2.976 1.728,2.928 1.728,7.824 z"
           id="path2106" />
        <path
           d="m 570.87222,723.83983 v -4.8 h 3.264 v 4.8 z m 0,30.24 v -25.008 h 3.264 v 25.008 z"
           id="path2108" />
        <path
           d="m 581.48024,719.03983 h 3.264 v 29.376 q 0,1.872 0.624,2.448 0.672,0.576 1.68,0.576 0.864,0 1.728,-0.192 0.912,-0.192 1.488,-0.384 l 0.576,2.64 q -0.912,0.384 -2.256,0.624 -1.296,0.24 -2.256,0.24 -2.208,0 -3.552,-1.296 -1.296,-1.296 -1.296,-3.552 z"
           id="path2110" />
        <path
           d="m 595.0162,761.75983 q 0.672,0.048 1.296,0.048 0.624,0.048 0.912,-0.048 0.576,-0.048 1.056,-0.672 0.528,-0.576 1.248,-2.208 0.768,-1.584 2.064,-4.8 l -10.896,-25.008 h 3.456 l 9.168,21.648 8.448,-21.648 h 3.264 l -12.96,32.256 q -0.528,1.392 -1.776,2.4 -1.248,1.008 -3.312,1.056 -0.432,0.048 -0.912,0 -0.48,0 -1.056,-0.096 z"
           id="path2112" />
      </g>
      <path
         id="path10566"
         style="display:inline;fill:#e85237;stroke-width:1.5;stroke-linecap:round;stroke-dashoffset:4.5"
         d="m 615,348.5 a 55,55 0 0 1 -55,55 55,55 0 0 1 -55,-55 55,55 0 0 1 55,-55 55,55 0 0 1 55,55 z" />
      <path
         id="path50084"
         style="display:inline;fill:#e85237;stroke-width:1.5;stroke-linecap:round;stroke-dashoffset:4.5"
         d="m 454.06457,537.76914 a 106,108 0 0 1 51.87092,-96.66525 106,108 0 0 1 108.12903,0 106,108 0 0 1 51.87091,96.66526 z" />
      <path
         id="rect73327"
         style="fill:#0c2a4c;stroke-width:1.5;stroke-linecap:round;stroke-dashoffset:4.5"
         d="m 320,444 h 16 v 44 h -16 z" />
      <path
         id="rect73327-5"
         style="display:inline;fill:#0c2a4c;stroke-width:1.5;stroke-linecap:round;stroke-dashoffset:4.5"
         d="m 320,352 h 16 v 44 h -16 z" />
      <path
         id="rect73327-5-3"
         style="display:inline;fill:#0c2a4c;stroke-width:1.5;stroke-linecap:round;stroke-dashoffset:4.5"
         d="m 320,260 h 16 v 44 h -16 z" />
      <path
         id="rect73327-3"
         style="display:inline;fill:#0c2a4c;stroke-width:1.5;stroke-linecap:round;stroke-dashoffset:4.5"
         d="m 320,536 h 16 v 44 h -16 z" />
      <path
         id="rect73327-3-6"
         style="display:inline;fill:#0c2a4c;stroke-width:1.5;stroke-linecap:round;stroke-dashoffset:4.5"
         d="m 320,628 h 16 v 44 h -16 z" />
      <path
         id="rect73327-3-6-7"
         style="display:inline;fill:#0c2a4c;stroke-width:1.5;stroke-linecap:round;stroke-dashoffset:4.5"
         d="m 320,720 h 16 v 44 h -16 z" />
      <path
         id="rect73570"
         style="display:inline;fill:#52809a;stroke-width:1.53897;stroke-linecap:round;stroke-dashoffset:4.5"
         d="m 244,270 h 80 v 24 h -80 z" />
      <path
         id="rect73570-5"
         style="display:inline;fill:#52809a;stroke-width:1.53897;stroke-linecap:round;stroke-dashoffset:4.5"
         d="m 244,362 h 80 v 24 h -80 z" />
      <path
         id="rect73570-5-6"
         style="display:inline;fill:#52809a;stroke-width:1.53897;stroke-linecap:round;stroke-dashoffset:4.5"
         d="m 244,454 h 80 v 24 h -80 z" />
      <path
         id="rect73570-5-6-2"
         style="display:inline;fill:#52809a;stroke-width:1.53897;stroke-linecap:round;stroke-dashoffset:4.5"
         d="m 244,546 h 80 v 24 h -80 z" />
      <path
         id="rect73570-5-6-2-9"
         style="display:inline;fill:#52809a;stroke-width:1.53897;stroke-linecap:round;stroke-dashoffset:4.5"
         d="m 244,638 h 80 v 24 h -80 z" />
      <path
         id="rect73570-5-6-2-9-1"
         style="display:inline;fill:#52809a;stroke-width:1.53897;stroke-linecap:round;stroke-dashoffset:4.5"
         d="m 244,730 h 80 v 24 h -80 z" />
    </g>
  </g>
</svg>
